<?xml version="1.0" standalone="no"?>
<!DOCTYPE svg PUBLIC "-//W3C//DTD SVG 20010904//EN"
 "http://www.w3.org/TR/2001/REC-SVG-20010904/DTD/svg10.dtd">
<svg version="1.0" xmlns="http://www.w3.org/2000/svg"
 width="256.000000pt" height="256.000000pt" viewBox="0 0 256.000000 256.000000"
 preserveAspectRatio="xMidYMid meet">
<metadata>
Created by potrace 1.11, written by Peter Selinger 2001-2013
</metadata>
<g transform="translate(0.000000,256.000000) scale(0.100000,-0.100000)"
fill="#000000" stroke="none">
<path d="M1250 2450 c-50 -14 -89 -40 -123 -82 -42 -52 -55 -87 -56 -157 l-1
-34 -48 45 c-62 58 -83 69 -146 75 -53 5 -156 -16 -208 -43 -47 -24 -77 -65
-89 -122 -28 -136 33 -285 144 -350 42 -25 32 -31 -25 -15 -112 30 -234 7
-272 -52 -37 -56 -51 -178 -31 -265 22 -98 98 -187 179 -210 24 -6 74 -10 113
-8 l70 3 -15 -35 c-21 -50 -26 -84 -25 -176 1 -145 60 -230 173 -250 108 -19
222 10 283 71 15 15 27 26 27 24 0 -2 -7 -22 -15 -44 -24 -67 -14 -207 21
-298 5 -14 -6 -10 -48 17 -95 61 -205 88 -363 91 -206 3 -344 -80 -300 -181
24 -55 156 -159 261 -206 131 -57 281 -70 360 -30 47 24 119 93 141 136 l15
29 34 -64 c43 -81 104 -156 156 -191 49 -33 57 -34 107 -8 53 26 57 45 19 78
-69 59 -132 130 -171 193 -23 35 -9 38 23 4 86 -92 363 -53 514 73 66 54 109
119 104 154 -3 18 0 28 10 30 19 4 -38 61 -94 94 -51 30 -140 40 -219 24 -121
-24 -314 -138 -359 -212 -9 -14 -16 -41 -16 -59 0 -97 -62 102 -84 270 -5 41
-5 43 17 37 12 -4 31 -9 42 -12 11 -3 54 -6 95 -6 103 1 178 29 240 92 61 63
83 126 65 188 l-13 43 36 -8 c60 -11 164 -6 204 11 78 33 163 133 184 216 9
38 8 53 -8 100 -37 111 -147 191 -336 246 -7 2 18 33 58 72 98 97 125 156 125
282 0 73 -4 104 -19 132 -58 119 -186 156 -338 98 -65 -25 -63 -25 -65 1 -5
64 -71 146 -143 177 -38 17 -150 24 -190 12z"/>
</g>
</svg>
